<svg width="34" height="34" viewBox="0 0 34 34" fill="none" xmlns="http://www.w3.org/2000/svg">
<path d="M13.8125 4.25H8.14583C7.157 4.25 6.66258 4.25 6.26167 4.37183C5.81523 4.50684 5.40903 4.74997 5.07911 5.07964C4.74919 5.40932 4.50576 5.81533 4.37042 6.26167C4.25 6.66258 4.25 7.157 4.25 8.14583C4.25 9.13467 4.25 9.62908 4.37183 10.03C4.50684 10.4764 4.74997 10.8826 5.07964 11.2126C5.40932 11.5425 5.81533 11.7859 6.26167 11.9212C6.664 12.0431 7.15842 12.0431 8.14725 12.0431H13.8139C14.8028 12.0431 15.2972 12.0431 15.6981 11.9212C16.1441 11.7862 16.5499 11.5432 16.8795 11.2138C17.2092 10.8844 17.4525 10.4787 17.5879 10.0328C17.7097 9.6305 17.7098 9.13608 17.7098 8.14725C17.7098 7.15842 17.7097 6.664 17.5879 6.26308C17.4528 5.81707 17.2098 5.41126 16.8804 5.08162C16.551 4.75197 16.1454 4.50866 15.6995 4.37325C15.2957 4.25 14.8013 4.25 13.8125 4.25ZM29.75 13.8125V8.14583C29.75 7.157 29.75 6.66258 29.6282 6.26167C29.4931 5.81566 29.2501 5.40985 28.9207 5.0802C28.5913 4.75055 28.1857 4.50724 27.7397 4.37183C27.3374 4.25 26.843 4.25 25.8542 4.25C24.8653 4.25 24.3709 4.25 23.97 4.37183C23.524 4.50691 23.1182 4.74991 22.7885 5.07931C22.4589 5.40871 22.2156 5.81434 22.0802 6.26025C21.9583 6.66258 21.9583 7.157 21.9583 8.14583V13.8125C21.9583 14.8013 21.9583 15.2957 22.0802 15.6967C22.2152 16.1427 22.4582 16.5485 22.7876 16.8781C23.117 17.2078 23.5227 17.4511 23.9686 17.5865C24.3709 17.7083 24.8653 17.7083 25.8542 17.7083C26.843 17.7083 27.3374 17.7083 27.7383 17.5865C28.1843 17.4514 28.5902 17.2084 28.9198 16.879C29.2494 16.5496 29.4928 16.144 29.6282 15.6981C29.75 15.2958 29.75 14.8013 29.75 13.8125ZM23.97 29.6282C24.3709 29.75 24.8653 29.75 25.8542 29.75C26.843 29.75 27.3374 29.75 27.7383 29.6282C28.1843 29.4931 28.5902 29.2501 28.9198 28.9207C29.2494 28.5913 29.4928 28.1857 29.6282 27.7397C29.75 27.3374 29.75 26.843 29.75 25.8542C29.75 24.8653 29.75 24.3709 29.6282 23.97C29.4931 23.524 29.2501 23.1182 28.9207 22.7885C28.5913 22.4589 28.1857 22.2156 27.7397 22.0802C27.3374 21.9583 26.843 21.9583 25.8542 21.9583C24.8653 21.9583 24.3709 21.9583 23.97 22.0802C23.524 22.2152 23.1182 22.4582 22.7885 22.7876C22.4589 23.117 22.2156 23.5227 22.0802 23.9686C21.9583 24.3709 21.9583 24.8653 21.9583 25.8542C21.9583 26.843 21.9583 27.3374 22.0802 27.7383C22.2152 28.1843 22.4582 28.5902 22.7876 28.9198C23.117 29.2494 23.5241 29.4928 23.97 29.6282ZM12.0417 16.2917H9.91667C7.24483 16.2917 5.91033 16.2917 5.08017 17.1218C4.25 17.952 4.25 19.2865 4.25 21.9583V24.0833C4.25 26.7552 4.25 28.0897 5.08017 28.9198C5.91033 29.75 7.24483 29.75 9.91667 29.75H12.0417C14.7135 29.75 16.048 29.75 16.8782 28.9198C17.7083 28.0897 17.7083 26.7552 17.7083 24.0833V21.9583C17.7083 19.2865 17.7083 17.952 16.8782 17.1218C16.048 16.2917 14.7135 16.2917 12.0417 16.2917Z" stroke="#FAFAFA" stroke-width="2" stroke-linejoin="round"/>
</svg>
